<svg xmlns="http://www.w3.org/2000/svg" xmlns:xlink="http://www.w3.org/1999/xlink" xmlns:lucid="lucid" width="1883.95" height="1455.78"><g transform="translate(0 0)" lucid:page-tab-id="FDQc8L-t--qg"><path d="M0 0h1883.95v1455.78H0z" fill="#fff"/><path d="M180.67 317.18v5.03m0 5.04v10.07m0 5.04v10.06m0 5.04v10.06m0 5.03v10.07m0 5.03v10.07m0 5.03v10.06m0 5.03v10.06m0 5.02V443m0 5.02v10.07m0 5.02v10.06m0 5.04v10.06m0 5.03v10.08m0 5.03v10.08m0 5.03v10.07m0 5.03v10.07m0 5.03v10.07m0 5.03v10.06m0 5.04v10.06m0 5.03v10.06m0 5.03v10.06m0 5.03v10.05m0 5.04v10.05m0 5.03v10.07m0 5.03v10.07m0 5.03v10.06m0 5.04v10.06m0 5.03v10.07m0 5.03v10.07m0 5.03v10.06m0 5.04v10.06m0 5.03v10.07m0 5.03v10.07m0 5.03v10.06m0 5.04v10.06m0 5.03v10.07m0 5.03v10.07m0 5.03v10.06m0 5.04v10.07m0 5.04V911m0 5.04v10.06m0 5.04v10.06m0 5.03v10.07m0 5.03v10.07m0 5.03v10.06m0 5.03v10.06m0 5.02v10.07m0 5.02v10.07m0 5.02v10.06m0 5.04v10.06m0 5.03v10.08m0 5.03v10.08m0 5.03v10.07m0 5.04v10.07m0 5.03v10.07m0 5.03v10.07m0 5.03v10.06m0 5.04v10.06m0 5.03v10.06m0 5.03v10.06m0 5.03v10.05m0 5.03v10.07m0 5.03v10.07m0 5.03v10.06m0 5.04v10.06m0 5.03v10.07m0 5.03v10.07m0 5.03v10.06m0 5.04v10.06m0 5.03v10.07m0 5.03v10.07m0 5.03v10.06m0 5.04v5.03" stroke="#333" fill="none"/><path d="M181.17 317.2h-1v-.52h1z" fill="#333"/><path d="M180.68 1404.18v3.5" stroke="#333" fill="none"/><path d="M160.67 348.1c0-4.42 3.58-8 8-8h24c4.42 0 8 3.58 8 8v1014.04c0 4.42-3.58 8-8 8h-24c-4.42 0-8-3.58-8-8z" stroke="#f2f2f2" fill="#d2d3d5"/><path d="M677.86 317.18v5m0 5v10m0 4.98v10m0 5v10m0 5v10m0 4.98v10m0 5v10m0 5v10m0 4.98v10m0 5v10m0 5v9.98m0 5v10m0 5v10m0 5v9.98m0 5v10m0 5v10m0 5v9.98m0 5v10m0 5v10m0 5v9.98m0 5v10m0 5v10m0 5V652m0 5v10m0 5v10m0 4.98v10m0 5v10m0 5v10m0 4.98v10m0 5v10m0 5v10m0 4.98v10m0 5v10m0 5v9.98m0 5v10m0 5v10m0 5v9.98m0 5v5l1.06 2.55 2.55 1.05 2.55 1.06 1.05 2.55v5m0 5v10m0 5v9.98m0 5v10m0 5v10m0 5v10m0 5v9.98m0 5v10m0 5v10m0 5v9.98m0 5v10m0 5v10m0 5v9.98m0 5v10m0 5v10m0 5v9.98m0 5v10m0 5v10m0 4.98v10m0 5v10m0 5v10m0 4.98v10m0 5v10m0 5v10m0 4.98v10m0 5v10m0 5v9.98m0 5v10m0 5v10m0 5v9.98m0 5v10m0 5v10m0 5v9.98m0 5v10m0 5v10m0 5v9.98m0 5v10m0 5v5" stroke="#333" fill="none"/><path d="M678.36 317.2h-1v-.52h1z" fill="#333"/><path d="M685.07 1433.86v.5" stroke="#333" fill="none"/><path d="M137.38 1378.14c0-4.4 3.6-8 8-8h70.58c4.42 0 8 3.6 8 8v64c0 4.42-3.58 8-8 8h-70.58c-4.4 0-8-3.58-8-8z" fill="none"/><path d="M146.04 1378.14l69.26 64m0-64l-69.26 64" stroke="#666" stroke-width="8" fill="none"/><path d="M657.86 408.1c0-4.42 3.6-8 8-8h24c4.42 0 8 3.58 8 8v954.04c0 4.42-3.58 8-8 8h-24c-4.4 0-8-3.58-8-8z" stroke="#f2f2f2" fill="#d2d3d5"/><path d="M201.67 410.1H640.97" stroke="#333" fill="none"/><path d="M201.68 410.6h-.5v-1h.5z" fill="#333"/><path d="M655.74 410.1l-14.26 4.64v-9.27z" stroke="#333" fill="#333"/><use xlink:href="#a" transform="matrix(1,0,0,1,363.9318886316516,383.2650258833254) translate(0 15.223828541048864)"/><path d="M85.63 200.68c0-4.42 3.6-8 8-8H267.7c4.43 0 8 3.58 8 8v108c0 4.4-3.57 8-8 8H93.64c-4.4 0-8-3.6-8-8z" stroke="#000" stroke-opacity="0" fill="#ffbd50"/><use xlink:href="#b" transform="matrix(1,0,0,1,93.63403554339985,200.67657997264968) translate(66.38222395087146 57.80595713526222)"/><path d="M582.83 200.68c0-4.42 3.58-8 8-8H764.9c4.42 0 8 3.58 8 8v108c0 4.4-3.58 8-8 8H590.83c-4.42 0-8-3.6-8-8z" stroke="#000" stroke-opacity="0" fill="#ffcc78"/><use xlink:href="#c" transform="matrix(1,0,0,1,590.8256985673926,200.67657997264973) translate(69.07811025501553 57.80595713526222)"/><path d="M963.38 200.68c0-4.42 3.58-8 8-8h174.08c4.42 0 8 3.58 8 8v108c0 4.4-3.58 8-8 8H971.38c-4.42 0-8-3.6-8-8z" stroke="#000" stroke-opacity="0" fill="#ffd99a"/><use xlink:href="#d" transform="matrix(1,0,0,1,971.3828998632484,200.67657997264973) translate(66.93725936643052 57.80595713526222)"/><path d="M515.12 83.74c0-4.4 3.58-8 8-8h836.75c4.42 0 8 3.6 8 8v28.94c0 4.42-3.58 8-8 8H523.12c-4.42 0-8-3.58-8-8z" stroke="#000" stroke-opacity="0" stroke-width="2" fill="#fff" fill-opacity="0"/><use xlink:href="#e" transform="matrix(1,0,0,1,519.1209437627418,79.74484041305286) translate(297.55717361902845 25.515742811573297)"/><use xlink:href="#f" transform="matrix(1,0,0,1,519.1209437627418,79.74484041305286) translate(440.0426938704077 25.515742811573297)"/><path d="M690.67 119.2h510.47M690.7 119.2h-1.03M1201.1 119.2h1.04" stroke="#b2b2b2" stroke-width="2" fill="none"/><path d="M515.12 126.8c0-4.43 3.58-8 8-8h837.7c4.43 0 8 3.57 8 8v2.83c0 4.42-3.57 8-8 8h-837.7c-4.42 0-8-3.58-8-8z" stroke="#000" stroke-opacity="0" stroke-width="2" fill="#fff" fill-opacity="0"/><use xlink:href="#g" transform="matrix(1,0,0,1,519.120943762742,122.78925950018227) translate(370.13579065029217 16.000849973417758)"/><use xlink:href="#h" transform="matrix(1,0,0,1,519.120943762742,122.78925950018227) translate(401.1715209703037 16.000849973417758)"/><path d="M1346.9 200.68c0-4.42 3.57-8 8-8h174.06c4.42 0 8 3.58 8 8v108c0 4.4-3.58 8-8 8H1354.9c-4.43 0-8-3.6-8-8z" stroke="#000" stroke-opacity="0" fill="#ffd99a"/><use xlink:href="#i" transform="matrix(1,0,0,1,1354.886055853011,200.67657997264973) translate(46.53310028016365 57.80595713526222)"/><path d="M698.86 450.08h27.5c6.63 0 12 5.38 12 12v30.07c0 6.63-5.37 12-12 12h-11.6" stroke="#333" fill="none"/><path d="M698.88 450.58h-.52v-1h.52z" fill="#333"/><path d="M699.98 504.15l14.27-4.63v9.27z" stroke="#333" fill="#333"/><use xlink:href="#j" transform="matrix(1,0,0,1,746.363317632316,465.7007372872507) translate(0.004999999999999005 15.223828541048864)"/><path d="M1058.42 317.18v5m0 4.98v9.98m0 5v9.97m0 5v10m0 4.98v9.98m0 5v9.97m0 5V412m0 5v9.98m0 5v9.97m0 5v9.98m0 5v9.97m0 5v9.97m0 5v9.98m0 5v9.97m0 5v9.97m0 5v9.97m0 5v9.97m0 5v9.98m0 5v9.97m0 4.98v9.98m0 5v9.98m0 5v9.97m0 5v9.98m0 5v9.98m0 5v9.97m0 5v9.97m0 5v9.98m0 5v9.97m0 5v9.97m0 5v9.98m0 5v9.97m0 5v9.97m0 5v9.98m0 5v9.97m0 4.98v9.98m0 5v9.98m0 5v9.97m0 5v9.98m0 5v9.98m0 5v9.97m0 5v9.97m0 5v9.98m0 5v9.97m0 5V966m0 5V981m0 5v9.97m0 5v9.97m0 5v9.98m0 5v9.97m0 4.98v9.98m0 5v9.98m0 5v9.97m0 5v9.98m0 5v9.98m0 5v9.97m0 5v9.97m0 5v9.98m0 5v9.97m0 5v9.97m0 5v9.98m0 5v9.97m0 5v9.97m0 5v9.98m0 5v9.97m0 4.98v9.98m0 5v9.98m0 5v4.98" stroke="#333" fill="none"/><path d="M1058.92 317.2h-1v-.52h1z" fill="#333"/><path d="M1058.42 1305.4v.52" stroke="#333" fill="none"/><path d="M1038.42 735.9c0-4.43 3.58-8 8-8h24c4.42 0 8 3.57 8 8V1243c0 4.4-3.58 8-8 8h-24c-4.42 0-8-3.6-8-8z" stroke="#f2f2f2" fill="#d2d3d5"/><path d="M656.86 549.2H429.43c-.1 0-.16-.06-.16-.15 0-.1-.08-.17-.17-.17H217.56" stroke="#333" fill="none"/><path d="M657.36 549.7h-.5v-1h.5z" fill="#333"/><path d="M202.8 548.88l14.26-4.64v9.28z" stroke="#333" fill="#333"/><use xlink:href="#k" transform="matrix(1,0,0,1,429.2230413340148,553.1811475719235) translate(0.005 13.866666666666669)"/><use xlink:href="#l" transform="matrix(1,0,0,1,398.19888837712864,522.0465219652832) translate(0.004999999999999005 15.223828541048864)"/><path d="M201.67 616.47H429.1c.1 0 .17.07.17.17s.07.16.16.16h211.55" stroke="#333" fill="none"/><path d="M201.68 616.97h-.5v-1h.5z" fill="#333"/><path d="M655.75 616.8l-14.27 4.64v-9.27z" stroke="#333" fill="#333"/><use xlink:href="#m" transform="matrix(1,0,0,1,384.4582026175726,620.8027722623368) translate(0.005000000000002558 15.223828541048864)"/><path d="M698.86 675.38h27.5c6.63 0 12 5.37 12 12v30.07c0 6.63-5.37 12-12 12h-11.6" stroke="#333" fill="none"/><path d="M698.88 675.88h-.52v-1h.52z" fill="#333"/><path d="M699.98 729.45l14.27-4.63v9.27z" stroke="#333" fill="#333"/><use xlink:href="#n" transform="matrix(1,0,0,1,746.363317632316,690.9997254708827) translate(0.0049999999999954525 15.223828541048864)"/><path d="M698.86 792.54h27.5c6.63 0 12 5.37 12 12v32.32c0 6.63-5.37 12-12 12h-11.6" stroke="#333" fill="none"/><path d="M698.88 793.04h-.52v-1h.52z" fill="#333"/><path d="M699.98 848.86l14.27-4.63v9.27z" stroke="#333" fill="#333"/><use xlink:href="#o" transform="matrix(1,0,0,1,746.363317632316,809.2816942672895) translate(0.0049999999999954525 15.223828541048864)"/><path d="M698.86 942.65h322.68" stroke="#333" fill="none"/><path d="M698.88 943.15h-.52v-1h.52z" fill="#333"/><path d="M1036.3 942.65l-14.26 4.64V938z" stroke="#333" fill="#333"/><use xlink:href="#p" transform="matrix(1,0,0,1,721.4669182802439,917.0509665603172) translate(0.0049999999999954525 14.4)"/><path d="M1441.92 317.18v5m0 4.98v9.98m0 5v9.97m0 5v10m0 4.98v9.98m0 5v9.97m0 5V412m0 5v9.98m0 5v9.97m0 5v9.98m0 5v9.97m0 5v9.97m0 5v9.98m0 5v9.97m0 5v9.97m0 5v9.97m0 5v9.97m0 5v9.98m0 5v9.97m0 4.98v9.98m0 5v9.98m0 5v9.97m0 5v9.98m0 5v9.98m0 5v9.97m0 5v9.97m0 5v9.98m0 5v9.97m0 5v9.97m0 5v9.98m0 5v9.97m0 5v9.97m0 5v9.98m0 5v9.97m0 4.98v9.98m0 5v9.98m0 5v9.97m0 5v9.98m0 5v9.98m0 5v9.97m0 5v9.97m0 5v9.98m0 5v9.97m0 5V966m0 5V981m0 5v9.97m0 5v9.97m0 5v9.98m0 5v9.97m0 4.98v9.98m0 5v9.98m0 5v9.97m0 5v9.98m0 5v9.98m0 5v9.97m0 5v9.97m0 5v9.98m0 5v9.97m0 5v9.97m0 5v9.98m0 5v9.97m0 5v9.97m0 5v9.98m0 5v9.97m0 4.98v9.98m0 5v9.98m0 5v4.98" stroke="#333" fill="none"/><path d="M1442.42 317.2h-1v-.52h1z" fill="#333"/><path d="M1441.92 1305.4v.52" stroke="#333" fill="none"/><path d="M1421.92 966.97c0-4.42 3.6-8 8-8h24c4.42 0 8 3.58 8 8v247.1c0 4.42-3.58 8-8 8h-24c-4.4 0-8-3.58-8-8z" stroke="#f2f2f2" fill="#d2d3d5"/><path d="M1079.42 989.44h325.62" stroke="#333" fill="none"/><path d="M1079.43 989.94h-.5v-1h.5z" fill="#333"/><path d="M1419.8 989.44l-14.26 4.63v-9.27z" stroke="#333" fill="#333"/><use xlink:href="#q" transform="matrix(1,0,0,1,1176.3220969230533,963.8382486583836) translate(0.0049999999999954525 14.4)"/><path d="M1462.92 1020.15h27.5c6.63 0 12 5.38 12 12v39.1c0 6.6-5.37 12-12 12h-11.6" stroke="#333" fill="none"/><path d="M1462.94 1020.65h-.52v-1h.52z" fill="#333"/><path d="M1464.04 1083.24l14.27-4.64v9.27z" stroke="#333" fill="#333"/><use xlink:href="#r" transform="matrix(1,0,0,1,1510.4236749179345,1040.8956768411945) translate(0.0049999999999954525 14.4)"/><path d="M1420.92 1137.3H1095.3" stroke="#333" fill="none"/><path d="M1421.42 1137.8h-.5v-1h.5z" fill="#333"/><path d="M1080.54 1137.3l14.26-4.63v9.27z" stroke="#333" fill="#333"/><use xlink:href="#s" transform="matrix(1,0,0,1,1181.847096923053,1141.3092923509746) translate(0.0049999999999954525 14.4)"/><path d="M1037.42 1176.96H714.74" stroke="#333" fill="none"/><path d="M1037.92 1177.46h-.5v-1h.5z" fill="#333"/><path d="M699.98 1176.96l14.27-4.63v9.27z" stroke="#333" fill="#333"/><use xlink:href="#t" transform="matrix(1,0,0,1,821.7169182802438,1180.9619142712943) translate(0.005000000000002558 14.4)"/><path d="M698.86 1235.54h27.5c6.63 0 12 5.37 12 12v43.6c0 6.62-5.37 12-12 12h-11.6" stroke="#333" fill="none"/><path d="M698.88 1236.04h-.52v-1h.52z" fill="#333"/><path d="M699.98 1303.13l14.27-4.64v9.26z" stroke="#333" fill="#333"/><use xlink:href="#u" transform="matrix(1,0,0,1,746.363317632316,1258.5344994265834) translate(0.0049999999999954525 14.4)"/><path d="M656.86 1339.18h-439.3" stroke="#333" fill="none"/><path d="M657.36 1339.68h-.5v-1h.5z" fill="#333"/><path d="M202.8 1339.18l14.26-4.64v9.27z" stroke="#333" fill="#333"/><g><use xlink:href="#v" transform="matrix(1,0,0,1,399.86748612031965,1343.1771857635094) translate(0.004999999999999005 14.4)"/></g><defs><path fill="#333" d="M135-150c-39-12-60 13-60 57V0H25l-1-190h47c2 13-1 29 3 40 6-28 27-53 61-41v41" id="w"/><path fill="#333" d="M185-48c-13 30-37 53-82 52C43 2 14-33 14-96s30-98 90-98c62 0 83 45 84 108H66c0 31 8 55 39 56 18 0 30-7 34-22zm-45-69c5-46-57-63-70-21-2 6-4 13-4 21h74" id="x"/><path fill="#333" d="M84 4C32 4 15-41 15-95c0-55 18-99 73-99 29 0 47 12 58 34l2-30h48l-1 265h-49V-32C136-9 114 4 84 4zm21-34c32 0 41-29 41-66 0-36-9-64-40-64-33 0-39 30-40 65 0 43 13 65 39 65" id="y"/><path fill="#333" d="M85 4C-2 5 27-109 22-190h50c7 57-23 150 33 157 60-5 35-97 40-157h50l1 190h-47c-2-12 1-28-3-38-12 25-28 42-61 42" id="z"/><path fill="#333" d="M137-138c1-29-70-34-71-4 15 46 118 7 119 86 1 83-164 76-172 9l43-7c4 19 20 25 44 25 33 8 57-30 24-41C81-84 22-81 20-136c-2-80 154-74 161-7" id="A"/><path fill="#333" d="M115-3C79 11 28 4 28-45v-112H4v-33h27l15-45h31v45h36v33H77v99c-1 23 16 31 38 25v30" id="B"/><path fill="#333" d="M186 0v-106H76V0H24v-248h52v99h110v-99h50V0h-50" id="C"/><path fill="#333" d="M136-208V0H84v-208H4v-40h212v40h-80" id="D"/><path fill="#333" d="M24-248c93 1 206-16 204 79-1 75-69 88-152 82V0H24v-248zm52 121c47 0 100 7 100-41 0-47-54-39-100-39v80" id="E"/><path fill="#333" d="M67-93c0 74 22 123 53 168H70C40 30 18-18 18-93s22-123 52-168h50c-32 44-53 94-53 168" id="F"/><path fill="#333" d="M102-93c0 74-22 123-52 168H0C30 29 54-18 53-93c0-74-22-123-53-168h50c30 45 52 94 52 168" id="G"/><g id="a"><use transform="matrix(0.05286051576753077,0,0,0.05286051576753077,0,0)" xlink:href="#w"/><use transform="matrix(0.05286051576753077,0,0,0.05286051576753077,7.400472207454308,0)" xlink:href="#x"/><use transform="matrix(0.05286051576753077,0,0,0.05286051576753077,17.972575360960462,0)" xlink:href="#y"/><use transform="matrix(0.05286051576753077,0,0,0.05286051576753077,29.5490283140497,0)" xlink:href="#z"/><use transform="matrix(0.05286051576753077,0,0,0.05286051576753077,41.12548126713894,0)" xlink:href="#x"/><use transform="matrix(0.05286051576753077,0,0,0.05286051576753077,51.69758442064509,0)" xlink:href="#A"/><use transform="matrix(0.05286051576753077,0,0,0.05286051576753077,62.26968757415125,0)" xlink:href="#B"/><use transform="matrix(0.05286051576753077,0,0,0.05286051576753077,68.56008895048741,0)" xlink:href="#C"/><use transform="matrix(0.05286051576753077,0,0,0.05286051576753077,82.25096253427787,0)" xlink:href="#D"/><use transform="matrix(0.05286051576753077,0,0,0.05286051576753077,93.82741548736712,0)" xlink:href="#D"/><use transform="matrix(0.05286051576753077,0,0,0.05286051576753077,105.40386844045636,0)" xlink:href="#E"/><use transform="matrix(0.05286051576753077,0,0,0.05286051576753077,118.09039222466374,0)" xlink:href="#F"/><use transform="matrix(0.05286051576753077,0,0,0.05286051576753077,124.38079360099991,0)" xlink:href="#G"/></g><path fill="#333" d="M238-95c0 69-44 99-111 99C63 4 22-25 22-93v-155h51v151c-1 38 19 59 55 60 90 1 49-130 58-211h52v153" id="H"/><g id="b"><use transform="matrix(0.05286051576753077,0,0,0.05286051576753077,0,0)" xlink:href="#H"/><use transform="matrix(0.05286051576753077,0,0,0.05286051576753077,13.69087358379047,0)" xlink:href="#A"/><use transform="matrix(0.05286051576753077,0,0,0.05286051576753077,24.262976737296626,0)" xlink:href="#x"/><use transform="matrix(0.05286051576753077,0,0,0.05286051576753077,34.83507989080278,0)" xlink:href="#w"/></g><path fill="#333" d="M199 0l-22-63H83L61 0H9l90-248h61L250 0h-51zm-33-102l-36-108c-10 38-24 72-36 108h72" id="I"/><path fill="#333" d="M135-194c53 0 70 44 70 98 0 56-19 98-73 100-31 1-45-17-59-34 3 33 2 69 2 105H25l-1-265h48c2 10 0 23 3 31 11-24 29-35 60-35zM114-30c33 0 39-31 40-66 0-38-9-64-40-64-56 0-55 130 0 130" id="J"/><g id="c"><use transform="matrix(0.05286051576753077,0,0,0.05286051576753077,0,0)" xlink:href="#I"/><use transform="matrix(0.05286051576753077,0,0,0.05286051576753077,13.69087358379047,0)" xlink:href="#J"/><use transform="matrix(0.05286051576753077,0,0,0.05286051576753077,25.267326536879708,0)" xlink:href="#J"/></g><path fill="#333" d="M24-248c120-7 223 5 221 122C244-46 201 0 124 0H24v-248zM76-40c74 7 117-18 117-86 0-67-45-88-117-82v168" id="K"/><path fill="#333" d="M133-34C117-15 103 5 69 4 32 3 11-16 11-54c-1-60 55-63 116-61 1-26-3-47-28-47-18 1-26 9-28 27l-52-2c7-38 36-58 82-57s74 22 75 68l1 82c-1 14 12 18 25 15v27c-30 8-71 5-69-32zm-48 3c29 0 43-24 42-57-32 0-66-3-65 30 0 17 8 27 23 27" id="L"/><g id="d"><use transform="matrix(0.05286051576753077,0,0,0.05286051576753077,0,0)" xlink:href="#K"/><use transform="matrix(0.05286051576753077,0,0,0.05286051576753077,13.69087358379047,0)" xlink:href="#L"/><use transform="matrix(0.05286051576753077,0,0,0.05286051576753077,24.262976737296626,0)" xlink:href="#B"/><use transform="matrix(0.05286051576753077,0,0,0.05286051576753077,30.553378113632785,0)" xlink:href="#L"/></g><path fill="#b2b2b2" d="M169-182c-1-43-94-46-97-3 18 66 151 10 154 114 3 95-165 93-204 36-6-8-10-19-12-30l50-8c3 46 112 56 116 5-17-69-150-10-154-114-4-87 153-88 188-35 5 8 8 18 10 28" id="M"/><path fill="#b2b2b2" d="M185-48c-13 30-37 53-82 52C43 2 14-33 14-96s30-98 90-98c62 0 83 45 84 108H66c0 31 8 55 39 56 18 0 30-7 34-22zm-45-69c5-46-57-63-70-21-2 6-4 13-4 21h74" id="N"/><path fill="#b2b2b2" d="M84 4C32 4 15-41 15-95c0-55 18-99 73-99 29 0 47 12 58 34l2-30h48l-1 265h-49V-32C136-9 114 4 84 4zm21-34c32 0 41-29 41-66 0-36-9-64-40-64-33 0-39 30-40 65 0 43 13 65 39 65" id="O"/><path fill="#b2b2b2" d="M85 4C-2 5 27-109 22-190h50c7 57-23 150 33 157 60-5 35-97 40-157h50l1 190h-47c-2-12 1-28-3-38-12 25-28 42-61 42" id="P"/><path fill="#b2b2b2" d="M135-194c87-1 58 113 63 194h-50c-7-57 23-157-34-157-59 0-34 97-39 157H25l-1-190h47c2 12-1 28 3 38 12-26 28-41 61-42" id="Q"/><path fill="#b2b2b2" d="M190-63c-7 42-38 67-86 67-59 0-84-38-90-98-12-110 154-137 174-36l-49 2c-2-19-15-32-35-32-30 0-35 28-38 64-6 74 65 87 74 30" id="R"/><g id="e"><use transform="matrix(0.07929077365129616,0,0,0.07929077365129616,0,0)" xlink:href="#M"/><use transform="matrix(0.07929077365129616,0,0,0.07929077365129616,19.02978567631108,0)" xlink:href="#N"/><use transform="matrix(0.07929077365129616,0,0,0.07929077365129616,34.88794040657031,0)" xlink:href="#O"/><use transform="matrix(0.07929077365129616,0,0,0.07929077365129616,52.252619836204175,0)" xlink:href="#P"/><use transform="matrix(0.07929077365129616,0,0,0.07929077365129616,69.61729926583803,0)" xlink:href="#N"/><use transform="matrix(0.07929077365129616,0,0,0.07929077365129616,85.47545399609727,0)" xlink:href="#Q"/><use transform="matrix(0.07929077365129616,0,0,0.07929077365129616,102.84013342573112,0)" xlink:href="#R"/><use transform="matrix(0.07929077365129616,0,0,0.07929077365129616,118.69828815599035,0)" xlink:href="#N"/></g><path fill="#b2b2b2" d="M24-248c120-7 223 5 221 122C244-46 201 0 124 0H24v-248zM76-40c74 7 117-18 117-86 0-67-45-88-117-82v168" id="S"/><path fill="#b2b2b2" d="M25-224v-37h50v37H25zM25 0v-190h50V0H25" id="T"/><path fill="#b2b2b2" d="M133-34C117-15 103 5 69 4 32 3 11-16 11-54c-1-60 55-63 116-61 1-26-3-47-28-47-18 1-26 9-28 27l-52-2c7-38 36-58 82-57s74 22 75 68l1 82c-1 14 12 18 25 15v27c-30 8-71 5-69-32zm-48 3c29 0 43-24 42-57-32 0-66-3-65 30 0 17 8 27 23 27" id="U"/><path fill="#b2b2b2" d="M195-6C206 82 75 100 31 46c-4-6-6-13-8-21l49-6c3 16 16 24 34 25 40 0 42-37 40-79-11 22-30 35-61 35-53 0-70-43-70-97 0-56 18-96 73-97 30 0 46 14 59 34l2-30h47zm-90-29c32 0 41-27 41-63 0-35-9-62-40-62-32 0-39 29-40 63 0 36 9 62 39 62" id="V"/><path fill="#b2b2b2" d="M135-150c-39-12-60 13-60 57V0H25l-1-190h47c2 13-1 29 3 40 6-28 27-53 61-41v41" id="W"/><path fill="#b2b2b2" d="M220-157c-53 9-28 100-34 157h-49v-107c1-27-5-49-29-50C55-147 81-57 75 0H25l-1-190h47c2 12-1 28 3 38 10-53 101-56 108 0 13-22 24-43 59-42 82 1 51 116 57 194h-49v-107c-1-25-5-48-29-50" id="X"/><g id="f"><use transform="matrix(0.07929077365129616,0,0,0.07929077365129616,0,0)" xlink:href="#S"/><use transform="matrix(0.07929077365129616,0,0,0.07929077365129616,20.536310375685705,0)" xlink:href="#T"/><use transform="matrix(0.07929077365129616,0,0,0.07929077365129616,28.465387740815324,0)" xlink:href="#U"/><use transform="matrix(0.07929077365129616,0,0,0.07929077365129616,44.32354247107455,0)" xlink:href="#V"/><use transform="matrix(0.07929077365129616,0,0,0.07929077365129616,61.68822190070841,0)" xlink:href="#W"/><use transform="matrix(0.07929077365129616,0,0,0.07929077365129616,72.78893021188989,0)" xlink:href="#U"/><use transform="matrix(0.07929077365129616,0,0,0.07929077365129616,88.6470849421491,0)" xlink:href="#X"/></g><path fill="#b2b2b2" d="M33 0v-248h34V0H33" id="Y"/><path fill="#b2b2b2" d="M30-248c118-7 216 8 213 122C240-48 200 0 122 0H30v-248zM63-27c89 8 146-16 146-99s-60-101-146-95v194" id="Z"/><path fill="#b2b2b2" d="M127-220V0H93v-220H8v-28h204v28h-85" id="aa"/><g id="g"><use transform="matrix(0.046252951296589434,0,0,0.046252951296589434,0,0)" xlink:href="#Y"/><use transform="matrix(0.046252951296589434,0,0,0.046252951296589434,4.6252951296589435,0)" xlink:href="#Z"/><use transform="matrix(0.046252951296589434,0,0,0.046252951296589434,16.60480951547561,0)" xlink:href="#aa"/></g><path fill="#b2b2b2" d="M141-36C126-15 110 5 73 4 37 3 15-17 15-53c-1-64 63-63 125-63 3-35-9-54-41-54-24 1-41 7-42 31l-33-3c5-37 33-52 76-52 45 0 72 20 72 64v82c-1 20 7 32 28 27v20c-31 9-61-2-59-35zM48-53c0 20 12 33 32 33 41-3 63-29 60-74-43 2-92-5-92 41" id="ab"/><path fill="#b2b2b2" d="M135-143c-3-34-86-38-87 0 15 53 115 12 119 90S17 21 10-45l28-5c4 36 97 45 98 0-10-56-113-15-118-90-4-57 82-63 122-42 12 7 21 19 24 35" id="ac"/><path fill="#b2b2b2" d="M106-169C34-169 62-67 57 0H25v-261h32l-1 103c12-21 28-36 61-36 89 0 53 116 60 194h-32v-121c2-32-8-49-39-48" id="ad"/><path fill="#b2b2b2" d="M115-194c53 0 69 39 70 98 0 66-23 100-70 100C84 3 66-7 56-30L54 0H23l1-261h32v101c10-23 28-34 59-34zm-8 174c40 0 45-34 45-75 0-40-5-75-45-74-42 0-51 32-51 76 0 43 10 73 51 73" id="ae"/><path fill="#b2b2b2" d="M100-194c62-1 85 37 85 99 1 63-27 99-86 99S16-35 15-95c0-66 28-99 85-99zM99-20c44 1 53-31 53-75 0-43-8-75-51-75s-53 32-53 75 10 74 51 75" id="af"/><path fill="#b2b2b2" d="M114-163C36-179 61-72 57 0H25l-1-190h30c1 12-1 29 2 39 6-27 23-49 58-41v29" id="ag"/><path fill="#b2b2b2" d="M85-194c31 0 48 13 60 33l-1-100h32l1 261h-30c-2-10 0-23-3-31C134-8 116 4 85 4 32 4 16-35 15-94c0-66 23-100 70-100zm9 24c-40 0-46 34-46 75 0 40 6 74 45 74 42 0 51-32 51-76 0-42-9-74-50-73" id="ah"/><g id="h"><use transform="matrix(0.046252951296589434,0,0,0.046252951296589434,0,0)" xlink:href="#Z"/><use transform="matrix(0.046252951296589434,0,0,0.046252951296589434,11.979514385816664,0)" xlink:href="#ab"/><use transform="matrix(0.046252951296589434,0,0,0.046252951296589434,21.230104645134553,0)" xlink:href="#ac"/><use transform="matrix(0.046252951296589434,0,0,0.046252951296589434,29.555635878520647,0)" xlink:href="#ad"/><use transform="matrix(0.046252951296589434,0,0,0.046252951296589434,38.806226137838536,0)" xlink:href="#ae"/><use transform="matrix(0.046252951296589434,0,0,0.046252951296589434,48.056816397156425,0)" xlink:href="#af"/><use transform="matrix(0.046252951296589434,0,0,0.046252951296589434,57.307406656474306,0)" xlink:href="#ab"/><use transform="matrix(0.046252951296589434,0,0,0.046252951296589434,66.5579969157922,0)" xlink:href="#ag"/><use transform="matrix(0.046252951296589434,0,0,0.046252951296589434,72.06209812008635,0)" xlink:href="#ah"/></g><path fill="#333" d="M275 0h-61l-44-196L126 0H64L0-248h53L97-49l45-199h58l43 199 44-199h52" id="ai"/><path fill="#333" d="M135-194c87-1 58 113 63 194h-50c-7-57 23-157-34-157-59 0-34 97-39 157H25l-1-190h47c2 12-1 28 3 38 12-26 28-41 61-42" id="aj"/><path fill="#333" d="M195-6C206 82 75 100 31 46c-4-6-6-13-8-21l49-6c3 16 16 24 34 25 40 0 42-37 40-79-11 22-30 35-61 35-53 0-70-43-70-97 0-56 18-96 73-97 30 0 46 14 59 34l2-30h47zm-90-29c32 0 41-27 41-63 0-35-9-62-40-62-32 0-39 29-40 63 0 36 9 62 39 62" id="ak"/><path fill="#333" d="M25 0v-261h50V0H25" id="al"/><g id="i"><use transform="matrix(0.05286051576753077,0,0,0.05286051576753077,0,0)" xlink:href="#ai"/><use transform="matrix(0.05286051576753077,0,0,0.05286051576753077,17.549691234820216,0)" xlink:href="#w"/><use transform="matrix(0.05286051576753077,0,0,0.05286051576753077,24.950163442274523,0)" xlink:href="#L"/><use transform="matrix(0.05286051576753077,0,0,0.05286051576753077,35.52226659578068,0)" xlink:href="#aj"/><use transform="matrix(0.05286051576753077,0,0,0.05286051576753077,47.098719548869916,0)" xlink:href="#ak"/><use transform="matrix(0.05286051576753077,0,0,0.05286051576753077,58.67517250195915,0)" xlink:href="#al"/><use transform="matrix(0.05286051576753077,0,0,0.05286051576753077,63.96122407871222,0)" xlink:href="#x"/><use transform="matrix(0.05286051576753077,0,0,0.05286051576753077,74.53332723221838,0)" xlink:href="#w"/></g><path fill="#333" d="M25-224v-37h50v37H25zM25 0v-190h50V0H25" id="am"/><path fill="#333" d="M88-194c31-1 46 15 58 34l-1-101h50l1 261h-48c-2-10 0-23-3-31C134-8 116 4 84 4 32 4 16-41 15-95c0-56 19-97 73-99zm17 164c33 0 40-30 41-66 1-37-9-64-41-64s-38 30-39 65c0 43 13 65 39 65" id="an"/><path fill="#333" d="M144 0l-44-69L55 0H2l70-98-66-92h53l41 62 40-62h54l-67 91 71 99h-54" id="ao"/><g id="j"><use transform="matrix(0.05286051576753077,0,0,0.05286051576753077,0,0)" xlink:href="#am"/><use transform="matrix(0.05286051576753077,0,0,0.05286051576753077,5.286051576753077,0)" xlink:href="#aj"/><use transform="matrix(0.05286051576753077,0,0,0.05286051576753077,16.862504529842315,0)" xlink:href="#an"/><use transform="matrix(0.05286051576753077,0,0,0.05286051576753077,28.438957482931556,0)" xlink:href="#x"/><use transform="matrix(0.05286051576753077,0,0,0.05286051576753077,39.01106063643771,0)" xlink:href="#ao"/><use transform="matrix(0.05286051576753077,0,0,0.05286051576753077,49.58316378994387,0)" xlink:href="#F"/><use transform="matrix(0.05286051576753077,0,0,0.05286051576753077,55.873565166280024,0)" xlink:href="#G"/></g><path fill="#333" d="M24 0v-248h52v208h133V0H24" id="ap"/><path fill="#333" d="M123 10C108 53 80 86 19 72V37c35 8 53-11 59-39L3-190h52l48 148c12-52 28-100 44-148h51" id="aq"/><path fill="#333" d="M110-194c64 0 96 36 96 99 0 64-35 99-97 99-61 0-95-36-95-99 0-62 34-99 96-99zm-1 164c35 0 45-28 45-65 0-40-10-65-43-65-34 0-45 26-45 65 0 36 10 65 43 65" id="ar"/><g id="l"><use transform="matrix(0.05286051576753077,0,0,0.05286051576753077,0,0)" xlink:href="#ap"/><use transform="matrix(0.05286051576753077,0,0,0.05286051576753077,11.57645295308924,0)" xlink:href="#L"/><use transform="matrix(0.05286051576753077,0,0,0.05286051576753077,22.148556106595393,0)" xlink:href="#aq"/><use transform="matrix(0.05286051576753077,0,0,0.05286051576753077,32.72065926010155,0)" xlink:href="#ar"/><use transform="matrix(0.05286051576753077,0,0,0.05286051576753077,44.297112213190786,0)" xlink:href="#z"/><use transform="matrix(0.05286051576753077,0,0,0.05286051576753077,55.873565166280024,0)" xlink:href="#B"/></g><path fill="#333" d="M128 0H69L1-190h53L99-40l48-150h52" id="as"/><g id="m"><use transform="matrix(0.05286051576753077,0,0,0.05286051576753077,0,0)" xlink:href="#aj"/><use transform="matrix(0.05286051576753077,0,0,0.05286051576753077,11.57645295308924,0)" xlink:href="#L"/><use transform="matrix(0.05286051576753077,0,0,0.05286051576753077,22.148556106595393,0)" xlink:href="#as"/><use transform="matrix(0.05286051576753077,0,0,0.05286051576753077,32.72065926010155,0)" xlink:href="#am"/><use transform="matrix(0.05286051576753077,0,0,0.05286051576753077,38.00671083685462,0)" xlink:href="#ak"/><use transform="matrix(0.05286051576753077,0,0,0.05286051576753077,49.58316378994386,0)" xlink:href="#L"/><use transform="matrix(0.05286051576753077,0,0,0.05286051576753077,60.155266943450016,0)" xlink:href="#B"/><use transform="matrix(0.05286051576753077,0,0,0.05286051576753077,66.44566831978618,0)" xlink:href="#x"/><use transform="matrix(0.05286051576753077,0,0,0.05286051576753077,77.01777147329233,0)" xlink:href="#F"/><use transform="matrix(0.05286051576753077,0,0,0.05286051576753077,83.30817284962849,0)" xlink:href="#G"/></g><path fill="#333" d="M240-174c0 40-23 61-54 70L253 0h-59l-57-94H76V0H24v-248c93 4 217-23 216 74zM76-134c48-2 112 12 112-38 0-48-66-32-112-35v73" id="at"/><g id="n"><use transform="matrix(0.05286051576753077,0,0,0.05286051576753077,0,0)" xlink:href="#an"/><use transform="matrix(0.05286051576753077,0,0,0.05286051576753077,11.57645295308924,0)" xlink:href="#am"/><use transform="matrix(0.05286051576753077,0,0,0.05286051576753077,16.862504529842315,0)" xlink:href="#A"/><use transform="matrix(0.05286051576753077,0,0,0.05286051576753077,27.434607683348464,0)" xlink:href="#J"/><use transform="matrix(0.05286051576753077,0,0,0.05286051576753077,39.011060636437705,0)" xlink:href="#al"/><use transform="matrix(0.05286051576753077,0,0,0.05286051576753077,44.29711221319078,0)" xlink:href="#L"/><use transform="matrix(0.05286051576753077,0,0,0.05286051576753077,54.86921536669693,0)" xlink:href="#aq"/><use transform="matrix(0.05286051576753077,0,0,0.05286051576753077,65.44131852020308,0)" xlink:href="#E"/><use transform="matrix(0.05286051576753077,0,0,0.05286051576753077,78.12784230441046,0)" xlink:href="#L"/><use transform="matrix(0.05286051576753077,0,0,0.05286051576753077,88.69994545791661,0)" xlink:href="#ak"/><use transform="matrix(0.05286051576753077,0,0,0.05286051576753077,100.27639841100586,0)" xlink:href="#x"/><use transform="matrix(0.05286051576753077,0,0,0.05286051576753077,110.848501564512,0)" xlink:href="#F"/><use transform="matrix(0.05286051576753077,0,0,0.05286051576753077,117.13890294084817,0)" xlink:href="#H"/><use transform="matrix(0.05286051576753077,0,0,0.05286051576753077,130.82977652463865,0)" xlink:href="#at"/><use transform="matrix(0.05286051576753077,0,0,0.05286051576753077,144.52065010842912,0)" xlink:href="#ap"/><use transform="matrix(0.05286051576753077,0,0,0.05286051576753077,156.09710306151837,0)" xlink:href="#G"/></g><path fill="#333" d="M-4 44V30h207v14H-4" id="au"/><path fill="#333" d="M190-63c-7 42-38 67-86 67-59 0-84-38-90-98-12-110 154-137 174-36l-49 2c-2-19-15-32-35-32-30 0-35 28-38 64-6 74 65 87 74 30" id="av"/><g id="o"><use transform="matrix(0.05286051576753077,0,0,0.05286051576753077,0,0)" xlink:href="#z"/><use transform="matrix(0.05286051576753077,0,0,0.05286051576753077,11.57645295308924,0)" xlink:href="#J"/><use transform="matrix(0.05286051576753077,0,0,0.05286051576753077,23.15290590617848,0)" xlink:href="#an"/><use transform="matrix(0.05286051576753077,0,0,0.05286051576753077,34.72935885926772,0)" xlink:href="#L"/><use transform="matrix(0.05286051576753077,0,0,0.05286051576753077,45.301462012773875,0)" xlink:href="#B"/><use transform="matrix(0.05286051576753077,0,0,0.05286051576753077,51.59186338911004,0)" xlink:href="#x"/><use transform="matrix(0.05286051576753077,0,0,0.05286051576753077,62.1639665426162,0)" xlink:href="#au"/><use transform="matrix(0.05286051576753077,0,0,0.05286051576753077,72.73606969612234,0)" xlink:href="#ao"/><use transform="matrix(0.05286051576753077,0,0,0.05286051576753077,83.30817284962849,0)" xlink:href="#au"/><use transform="matrix(0.05286051576753077,0,0,0.05286051576753077,93.88027600313464,0)" xlink:href="#A"/><use transform="matrix(0.05286051576753077,0,0,0.05286051576753077,104.45237915664079,0)" xlink:href="#x"/><use transform="matrix(0.05286051576753077,0,0,0.05286051576753077,115.02448231014694,0)" xlink:href="#al"/><use transform="matrix(0.05286051576753077,0,0,0.05286051576753077,120.31053388690002,0)" xlink:href="#x"/><use transform="matrix(0.05286051576753077,0,0,0.05286051576753077,130.88263704040617,0)" xlink:href="#av"/><use transform="matrix(0.05286051576753077,0,0,0.05286051576753077,141.45474019391233,0)" xlink:href="#B"/><use transform="matrix(0.05286051576753077,0,0,0.05286051576753077,147.74514157024848,0)" xlink:href="#ar"/><use transform="matrix(0.05286051576753077,0,0,0.05286051576753077,159.32159452333772,0)" xlink:href="#w"/><use transform="matrix(0.05286051576753077,0,0,0.05286051576753077,166.72206673079202,0)" xlink:href="#A"/><use transform="matrix(0.05286051576753077,0,0,0.05286051576753077,177.29416988429819,0)" xlink:href="#F"/><use transform="matrix(0.05286051576753077,0,0,0.05286051576753077,183.58457126063433,0)" xlink:href="#G"/></g><path fill="#333" d="M4 7l51-268h42L46 7H4" id="aw"/><path fill="#333" d="M135-194c52 0 70 43 70 98 0 56-19 99-73 100-30 1-46-15-58-35L72 0H24l1-261h50v104c11-23 29-37 60-37zM114-30c31 0 40-27 40-66 0-37-7-63-39-63s-41 28-41 65c0 36 8 64 40 64" id="ax"/><g id="p"><use transform="matrix(0.05,0,0,0.05,0,0)" xlink:href="#ak"/><use transform="matrix(0.05,0,0,0.05,10.950000000000001,0)" xlink:href="#x"/><use transform="matrix(0.05,0,0,0.05,20.950000000000003,0)" xlink:href="#B"/><use transform="matrix(0.05,0,0,0.05,26.900000000000002,0)" xlink:href="#au"/><use transform="matrix(0.05,0,0,0.05,36.900000000000006,0)" xlink:href="#am"/><use transform="matrix(0.05,0,0,0.05,41.900000000000006,0)" xlink:href="#aj"/><use transform="matrix(0.05,0,0,0.05,52.85,0)" xlink:href="#an"/><use transform="matrix(0.05,0,0,0.05,63.80000000000001,0)" xlink:href="#am"/><use transform="matrix(0.05,0,0,0.05,68.80000000000001,0)" xlink:href="#av"/><use transform="matrix(0.05,0,0,0.05,78.80000000000001,0)" xlink:href="#L"/><use transform="matrix(0.05,0,0,0.05,88.80000000000001,0)" xlink:href="#B"/><use transform="matrix(0.05,0,0,0.05,94.75000000000001,0)" xlink:href="#ar"/><use transform="matrix(0.05,0,0,0.05,105.7,0)" xlink:href="#w"/><use transform="matrix(0.05,0,0,0.05,112.7,0)" xlink:href="#A"/><use transform="matrix(0.05,0,0,0.05,122.7,0)" xlink:href="#aw"/><use transform="matrix(0.05,0,0,0.05,127.7,0)" xlink:href="#B"/><use transform="matrix(0.05,0,0,0.05,133.65,0)" xlink:href="#w"/><use transform="matrix(0.05,0,0,0.05,140.65,0)" xlink:href="#L"/><use transform="matrix(0.05,0,0,0.05,150.65,0)" xlink:href="#as"/><use transform="matrix(0.05,0,0,0.05,160.65,0)" xlink:href="#x"/><use transform="matrix(0.05,0,0,0.05,170.65,0)" xlink:href="#al"/><use transform="matrix(0.05,0,0,0.05,175.65,0)" xlink:href="#x"/><use transform="matrix(0.05,0,0,0.05,185.65,0)" xlink:href="#w"/><use transform="matrix(0.05,0,0,0.05,192.65,0)" xlink:href="#A"/><use transform="matrix(0.05,0,0,0.05,202.65,0)" xlink:href="#au"/><use transform="matrix(0.05,0,0,0.05,212.65,0)" xlink:href="#ar"/><use transform="matrix(0.05,0,0,0.05,223.60000000000002,0)" xlink:href="#J"/><use transform="matrix(0.05,0,0,0.05,234.54999999999995,0)" xlink:href="#B"/><use transform="matrix(0.05,0,0,0.05,240.49999999999997,0)" xlink:href="#ao"/><use transform="matrix(0.05,0,0,0.05,250.49999999999997,0)" xlink:href="#au"/><use transform="matrix(0.05,0,0,0.05,260.5,0)" xlink:href="#ax"/><use transform="matrix(0.05,0,0,0.05,271.45,0)" xlink:href="#ao"/><use transform="matrix(0.05,0,0,0.05,281.45,0)" xlink:href="#F"/><use transform="matrix(0.05,0,0,0.05,287.4,0)" xlink:href="#G"/></g><g id="q"><use transform="matrix(0.05,0,0,0.05,0,0)" xlink:href="#w"/><use transform="matrix(0.05,0,0,0.05,7,0)" xlink:href="#x"/><use transform="matrix(0.05,0,0,0.05,17,0)" xlink:href="#L"/><use transform="matrix(0.05,0,0,0.05,27,0)" xlink:href="#an"/><use transform="matrix(0.05,0,0,0.05,37.95,0)" xlink:href="#au"/><use transform="matrix(0.05,0,0,0.05,47.95,0)" xlink:href="#an"/><use transform="matrix(0.05,0,0,0.05,58.900000000000006,0)" xlink:href="#L"/><use transform="matrix(0.05,0,0,0.05,68.9,0)" xlink:href="#B"/><use transform="matrix(0.05,0,0,0.05,74.85000000000001,0)" xlink:href="#L"/><use transform="matrix(0.05,0,0,0.05,84.85000000000001,0)" xlink:href="#ax"/><use transform="matrix(0.05,0,0,0.05,95.80000000000001,0)" xlink:href="#L"/><use transform="matrix(0.05,0,0,0.05,105.80000000000001,0)" xlink:href="#A"/><use transform="matrix(0.05,0,0,0.05,115.80000000000001,0)" xlink:href="#x"/><use transform="matrix(0.05,0,0,0.05,125.80000000000001,0)" xlink:href="#A"/><use transform="matrix(0.05,0,0,0.05,135.8,0)" xlink:href="#F"/><use transform="matrix(0.05,0,0,0.05,141.75,0)" xlink:href="#G"/></g><g id="r"><use transform="matrix(0.05,0,0,0.05,0,0)" xlink:href="#av"/><use transform="matrix(0.05,0,0,0.05,10,0)" xlink:href="#al"/><use transform="matrix(0.05,0,0,0.05,15,0)" xlink:href="#x"/><use transform="matrix(0.05,0,0,0.05,25,0)" xlink:href="#L"/><use transform="matrix(0.05,0,0,0.05,35,0)" xlink:href="#aj"/><use transform="matrix(0.05,0,0,0.05,45.95,0)" xlink:href="#au"/><use transform="matrix(0.05,0,0,0.05,55.95,0)" xlink:href="#an"/><use transform="matrix(0.05,0,0,0.05,66.9,0)" xlink:href="#L"/><use transform="matrix(0.05,0,0,0.05,76.9,0)" xlink:href="#B"/><use transform="matrix(0.05,0,0,0.05,82.85000000000001,0)" xlink:href="#L"/><use transform="matrix(0.05,0,0,0.05,92.85000000000001,0)" xlink:href="#ax"/><use transform="matrix(0.05,0,0,0.05,103.80000000000001,0)" xlink:href="#L"/><use transform="matrix(0.05,0,0,0.05,113.80000000000001,0)" xlink:href="#A"/><use transform="matrix(0.05,0,0,0.05,123.80000000000001,0)" xlink:href="#x"/><use transform="matrix(0.05,0,0,0.05,133.8,0)" xlink:href="#au"/><use transform="matrix(0.05,0,0,0.05,143.8,0)" xlink:href="#ao"/><use transform="matrix(0.05,0,0,0.05,153.8,0)" xlink:href="#F"/><use transform="matrix(0.05,0,0,0.05,159.75,0)" xlink:href="#G"/></g><path fill="#333" d="M76-208v77h127v40H76V0H24v-248h183v40H76" id="ay"/><path fill="#333" d="M220-157c-53 9-28 100-34 157h-49v-107c1-27-5-49-29-50C55-147 81-57 75 0H25l-1-190h47c2 12-1 28 3 38 10-53 101-56 108 0 13-22 24-43 59-42 82 1 51 116 57 194h-49v-107c-1-25-5-48-29-50" id="az"/><g id="s"><use transform="matrix(0.05,0,0,0.05,0,0)" xlink:href="#an"/><use transform="matrix(0.05,0,0,0.05,10.950000000000001,0)" xlink:href="#am"/><use transform="matrix(0.05,0,0,0.05,15.950000000000001,0)" xlink:href="#av"/><use transform="matrix(0.05,0,0,0.05,25.950000000000003,0)" xlink:href="#B"/><use transform="matrix(0.05,0,0,0.05,31.900000000000002,0)" xlink:href="#F"/><use transform="matrix(0.05,0,0,0.05,37.85,0)" xlink:href="#K"/><use transform="matrix(0.05,0,0,0.05,50.800000000000004,0)" xlink:href="#L"/><use transform="matrix(0.05,0,0,0.05,60.800000000000004,0)" xlink:href="#B"/><use transform="matrix(0.05,0,0,0.05,66.75,0)" xlink:href="#L"/><use transform="matrix(0.05,0,0,0.05,76.75,0)" xlink:href="#ay"/><use transform="matrix(0.05,0,0,0.05,87.7,0)" xlink:href="#w"/><use transform="matrix(0.05,0,0,0.05,94.7,0)" xlink:href="#L"/><use transform="matrix(0.05,0,0,0.05,104.7,0)" xlink:href="#az"/><use transform="matrix(0.05,0,0,0.05,120.7,0)" xlink:href="#x"/><use transform="matrix(0.05,0,0,0.05,130.7,0)" xlink:href="#G"/></g><g id="t"><use transform="matrix(0.05,0,0,0.05,0,0)" xlink:href="#K"/><use transform="matrix(0.05,0,0,0.05,12.950000000000001,0)" xlink:href="#L"/><use transform="matrix(0.05,0,0,0.05,22.950000000000003,0)" xlink:href="#B"/><use transform="matrix(0.05,0,0,0.05,28.900000000000002,0)" xlink:href="#L"/><use transform="matrix(0.05,0,0,0.05,38.900000000000006,0)" xlink:href="#ay"/><use transform="matrix(0.05,0,0,0.05,49.85000000000001,0)" xlink:href="#w"/><use transform="matrix(0.05,0,0,0.05,56.85,0)" xlink:href="#L"/><use transform="matrix(0.05,0,0,0.05,66.85000000000001,0)" xlink:href="#az"/><use transform="matrix(0.05,0,0,0.05,82.85000000000001,0)" xlink:href="#x"/></g><g id="u"><use transform="matrix(0.05,0,0,0.05,0,0)" xlink:href="#z"/><use transform="matrix(0.05,0,0,0.05,10.950000000000001,0)" xlink:href="#J"/><use transform="matrix(0.05,0,0,0.05,21.900000000000002,0)" xlink:href="#an"/><use transform="matrix(0.05,0,0,0.05,32.85,0)" xlink:href="#L"/><use transform="matrix(0.05,0,0,0.05,42.85,0)" xlink:href="#B"/><use transform="matrix(0.05,0,0,0.05,48.800000000000004,0)" xlink:href="#x"/><use transform="matrix(0.05,0,0,0.05,58.800000000000004,0)" xlink:href="#au"/><use transform="matrix(0.05,0,0,0.05,68.80000000000001,0)" xlink:href="#ar"/><use transform="matrix(0.05,0,0,0.05,79.75000000000001,0)" xlink:href="#J"/><use transform="matrix(0.05,0,0,0.05,90.70000000000002,0)" xlink:href="#B"/><use transform="matrix(0.05,0,0,0.05,96.65000000000002,0)" xlink:href="#ao"/><use transform="matrix(0.05,0,0,0.05,106.65000000000003,0)" xlink:href="#au"/><use transform="matrix(0.05,0,0,0.05,116.65000000000003,0)" xlink:href="#ax"/><use transform="matrix(0.05,0,0,0.05,127.60000000000002,0)" xlink:href="#ao"/><use transform="matrix(0.05,0,0,0.05,137.60000000000002,0)" xlink:href="#au"/><use transform="matrix(0.05,0,0,0.05,147.60000000000002,0)" xlink:href="#ak"/><use transform="matrix(0.05,0,0,0.05,158.55,0)" xlink:href="#ao"/><use transform="matrix(0.05,0,0,0.05,168.55,0)" xlink:href="#F"/><use transform="matrix(0.05,0,0,0.05,174.5,0)" xlink:href="#G"/></g><g id="v"><use transform="matrix(0.05,0,0,0.05,0,0)" xlink:href="#ap"/><use transform="matrix(0.05,0,0,0.05,10.950000000000001,0)" xlink:href="#L"/><use transform="matrix(0.05,0,0,0.05,20.950000000000003,0)" xlink:href="#aq"/><use transform="matrix(0.05,0,0,0.05,30.950000000000003,0)" xlink:href="#ar"/><use transform="matrix(0.05,0,0,0.05,41.900000000000006,0)" xlink:href="#z"/><use transform="matrix(0.05,0,0,0.05,52.85,0)" xlink:href="#B"/></g></defs></g></svg>